M48
;DRILL file {pcbnew (2015-03-02 BZR 5466)-product} date Fri 06 Mar 2015 00:41:35 GMT
;FORMAT={-:-/ absolute / metric / decimal}
FMAT,2
METRIC,TZ
T1C0.635
T2C1.016
T3C2.500
%
G90
G05
M71
T1
X82.55Y-78.232
X82.804Y-94.234
X88.9Y-84.582
X90.17Y-84.074
X90.17Y-96.012
X91.313Y-87.884
X91.694Y-82.677
X91.694Y-86.614
X91.694Y-93.218
X93.218Y-66.294
X95.631Y-75.692
X95.631Y-76.962
X97.79Y-97.282
X99.802Y-76.962
X102.108Y-66.04
X102.108Y-79.248
X103.124Y-92.964
X103.886Y-85.344
X104.14Y-82.042
X104.14Y-97.282
X104.902Y-69.342
X104.902Y-70.612
X106.172Y-66.548
X106.172Y-89.408
X107.95Y-78.994
X108.458Y-68.326
X109.728Y-67.818
X109.982Y-72.644
X110.744Y-75.946
X113.538Y-70.612
X113.538Y-76.962
T2
X95.25Y-65.532
X95.25Y-68.072
X97.79Y-65.532
X97.79Y-68.072
X100.33Y-65.532
X100.33Y-68.072
T3
X83.566Y-83.185
X111.252Y-83.185
T0
M30
