G04 #@! TF.FileFunction,Copper,L2,Bot,Signal*
%FSLAX46Y46*%
G04 Gerber Fmt 4.6, Leading zero omitted, Abs format (unit mm)*
G04 Created by KiCad (PCBNEW (2015-03-02 BZR 5466)-product) date Fri 06 Mar 2015 00:37:45 GMT*
%MOMM*%
G01*
G04 APERTURE LIST*
%ADD10C,0.100000*%
%ADD11C,3.500000*%
%ADD12R,1.727200X1.727200*%
%ADD13O,1.727200X1.727200*%
%ADD14C,0.889000*%
%ADD15C,0.254000*%
%ADD16C,0.381000*%
%ADD17C,1.016000*%
%ADD18C,0.508000*%
G04 APERTURE END LIST*
D10*
D11*
X83566000Y-83185000D03*
X111252000Y-83185000D03*
D12*
X100330000Y-68072000D03*
D13*
X100330000Y-65532000D03*
X97790000Y-68072000D03*
X97790000Y-65532000D03*
X95250000Y-68072000D03*
X95250000Y-65532000D03*
D10*
G36*
X84094241Y-98295810D02*
X82298190Y-96499759D01*
X84094241Y-94703708D01*
X85890292Y-96499759D01*
X84094241Y-98295810D01*
X84094241Y-98295810D01*
G37*
G36*
X95229759Y-87160292D02*
X93433708Y-85364241D01*
X95229759Y-83568190D01*
X97025810Y-85364241D01*
X95229759Y-87160292D01*
X95229759Y-87160292D01*
G37*
G36*
X112519810Y-96499759D02*
X110723759Y-98295810D01*
X108927708Y-96499759D01*
X110723759Y-94703708D01*
X112519810Y-96499759D01*
X112519810Y-96499759D01*
G37*
G36*
X101384292Y-85364241D02*
X99588241Y-87160292D01*
X97792190Y-85364241D01*
X99588241Y-83568190D01*
X101384292Y-85364241D01*
X101384292Y-85364241D01*
G37*
G36*
X110723759Y-68074190D02*
X112519810Y-69870241D01*
X110723759Y-71666292D01*
X108927708Y-69870241D01*
X110723759Y-68074190D01*
X110723759Y-68074190D01*
G37*
G36*
X99588241Y-79209708D02*
X101384292Y-81005759D01*
X99588241Y-82801810D01*
X97792190Y-81005759D01*
X99588241Y-79209708D01*
X99588241Y-79209708D01*
G37*
G36*
X82298190Y-69870241D02*
X84094241Y-68074190D01*
X85890292Y-69870241D01*
X84094241Y-71666292D01*
X82298190Y-69870241D01*
X82298190Y-69870241D01*
G37*
G36*
X93433708Y-81005759D02*
X95229759Y-79209708D01*
X97025810Y-81005759D01*
X95229759Y-82801810D01*
X93433708Y-81005759D01*
X93433708Y-81005759D01*
G37*
D14*
X91694000Y-86614000D03*
X102108000Y-79248000D03*
X95631000Y-75692000D03*
X109982000Y-72644000D03*
X113538000Y-76962000D03*
X110744000Y-75946000D03*
X113538000Y-70612000D03*
X99802000Y-76962000D03*
X95631002Y-76962000D03*
X106172000Y-66548000D03*
X104140000Y-97282000D03*
X97790000Y-97282000D03*
X82804000Y-94234000D03*
X82550002Y-78232000D03*
X103886000Y-85344000D03*
X104902000Y-69342000D03*
X104140000Y-82042000D03*
X104902000Y-70612000D03*
X90170000Y-84074000D03*
X91313000Y-87884000D03*
X109728000Y-67818000D03*
X108458000Y-68326000D03*
X88900000Y-84582000D03*
X93218000Y-66294000D03*
X102108000Y-66040000D03*
X90170000Y-96012000D03*
X91694000Y-93218000D03*
X103124000Y-92964000D03*
X106172000Y-89408000D03*
X91694000Y-82677000D03*
X107950000Y-78994000D03*
D15*
X91567000Y-86487000D02*
X91694000Y-86614000D01*
X91567000Y-86487000D02*
X91694000Y-86614000D01*
X94742000Y-73660000D02*
X100330000Y-68072000D01*
X91567000Y-86487000D02*
X91567000Y-83947000D01*
X90678000Y-83058000D02*
X91567000Y-83947000D01*
X90678000Y-82296000D02*
X90678000Y-83058000D01*
X91313000Y-81661000D02*
X90678000Y-82296000D01*
X94742000Y-78232000D02*
X91313000Y-81661000D01*
X94742000Y-78232000D02*
X94742000Y-73660000D01*
D16*
X102108000Y-77597000D02*
X100203000Y-75692000D01*
X100203000Y-75692000D02*
X95631000Y-75692000D01*
X102108000Y-79248000D02*
X102108000Y-77597000D01*
D17*
X109982000Y-72644000D02*
X111506000Y-72644000D01*
X111506000Y-72644000D02*
X113538000Y-70612000D01*
X110744000Y-75946000D02*
X112522000Y-75946000D01*
X112522000Y-75946000D02*
X113538000Y-76962000D01*
D18*
X110998000Y-93980000D02*
X113030000Y-96012000D01*
X109728000Y-94742000D02*
X110490000Y-93980000D01*
X110490000Y-93980000D02*
X110998000Y-93980000D01*
X92964000Y-93218000D02*
X101346000Y-93218000D01*
X107696000Y-77724000D02*
X108458000Y-77724000D01*
X108458000Y-77724000D02*
X108966000Y-78232000D01*
X108966000Y-78232000D02*
X108966000Y-79502000D01*
X108966000Y-79502000D02*
X107950000Y-80518000D01*
X107950000Y-80518000D02*
X107950000Y-89916000D01*
X107950000Y-89916000D02*
X106680000Y-91186000D01*
X106680000Y-91186000D02*
X105664000Y-91186000D01*
X105664000Y-91186000D02*
X104648000Y-90170000D01*
X104648000Y-90170000D02*
X96266000Y-90170000D01*
X96266000Y-90170000D02*
X92964000Y-86868000D01*
X92964000Y-86868000D02*
X92456000Y-87376000D01*
X92456000Y-87376000D02*
X92456000Y-88138000D01*
X92456000Y-88138000D02*
X91694000Y-88900000D01*
X91694000Y-88900000D02*
X90932000Y-88900000D01*
X90932000Y-88900000D02*
X89662000Y-87630000D01*
X89662000Y-87630000D02*
X89662000Y-85344000D01*
X89662000Y-85344000D02*
X89408000Y-85598000D01*
X89408000Y-85598000D02*
X88392002Y-85598000D01*
X88392002Y-85598000D02*
X88392002Y-87630002D01*
X88392002Y-87630002D02*
X92964000Y-92202000D01*
X92964000Y-92202000D02*
X92964000Y-93218000D01*
X113792000Y-78232000D02*
X113030000Y-78232000D01*
X113792000Y-99060000D02*
X113792000Y-78232000D01*
X110998000Y-99060000D02*
X113792000Y-99060000D01*
X104140000Y-99060000D02*
X110998000Y-99060000D01*
X107442000Y-73914000D02*
X107442000Y-77978000D01*
X108458000Y-73914000D02*
X107442000Y-73914000D01*
X108712000Y-73660000D02*
X108458000Y-73914000D01*
X109474000Y-73660000D02*
X108712000Y-73660000D01*
X109728000Y-73914000D02*
X109474000Y-73660000D01*
X111760000Y-73914000D02*
X109728000Y-73914000D01*
X113792000Y-71882000D02*
X111760000Y-73914000D01*
X113792000Y-75692000D02*
X113792000Y-71882000D01*
X112776000Y-74676000D02*
X113792000Y-75692000D01*
X110490000Y-74676000D02*
X112776000Y-74676000D01*
X109474000Y-75692000D02*
X110490000Y-74676000D01*
X109474000Y-76454000D02*
X109474000Y-75692000D01*
X110236000Y-77216000D02*
X109474000Y-76454000D01*
X112014000Y-77216000D02*
X110236000Y-77216000D01*
X113030000Y-78232000D02*
X112014000Y-77216000D01*
X107442000Y-77978000D02*
X107696000Y-77724000D01*
X104394000Y-93218000D02*
X102870000Y-94742000D01*
X104394000Y-92710000D02*
X104394000Y-93218000D01*
X103378000Y-91694000D02*
X104394000Y-92710000D01*
X102870000Y-91694000D02*
X103378000Y-91694000D01*
X101346000Y-93218000D02*
X102870000Y-91694000D01*
X102870000Y-94742000D02*
X109728000Y-94742000D01*
X113030000Y-97028000D02*
X110998000Y-99060000D01*
X113030000Y-96012000D02*
X113030000Y-97028000D01*
D17*
X95631002Y-76962000D02*
X99802000Y-76962000D01*
D18*
X106172000Y-63500000D02*
X106172000Y-66548000D01*
X113792000Y-63500000D02*
X106172000Y-63500000D01*
X113792000Y-69342000D02*
X113792000Y-63500000D01*
X104140000Y-99060000D02*
X104140000Y-97282000D01*
X97790000Y-97282000D02*
X97790000Y-99060000D01*
X81026000Y-94234000D02*
X82804000Y-94234000D01*
X81026000Y-78232000D02*
X82550002Y-78232000D01*
X102362000Y-63500000D02*
X106172000Y-63500000D01*
X97282000Y-63500000D02*
X102362000Y-63500000D01*
X97790000Y-99060000D02*
X104140000Y-99060000D01*
X81026000Y-99060000D02*
X97790000Y-99060000D01*
X81026000Y-94234000D02*
X81026000Y-99060000D01*
X81026000Y-84582000D02*
X81026000Y-94234000D01*
X81026000Y-78232000D02*
X81026000Y-84582000D01*
X81026000Y-63500000D02*
X81026000Y-78232000D01*
X97282000Y-63500000D02*
X81026000Y-63500000D01*
D15*
X100330000Y-65532000D02*
X102362000Y-63500000D01*
D16*
X103886000Y-85344000D02*
X103886000Y-83058000D01*
X103886000Y-83058000D02*
X103124000Y-82296000D01*
X103124000Y-82296000D02*
X103124000Y-81660998D01*
X103124000Y-81660998D02*
X103124000Y-71120000D01*
X103124000Y-71120000D02*
X104902000Y-69342000D01*
X104140000Y-82042000D02*
X104140000Y-71374000D01*
X104140000Y-71374000D02*
X104902000Y-70612000D01*
D17*
X95229759Y-81005759D02*
X99588241Y-85364241D01*
X95229759Y-85364241D02*
X98257518Y-88392000D01*
X98257518Y-88392000D02*
X99822000Y-88392000D01*
X102616000Y-84033518D02*
X99588241Y-81005759D01*
X102616000Y-85598000D02*
X102616000Y-84033518D01*
X99822000Y-88392000D02*
X102616000Y-85598000D01*
D15*
X94234000Y-66802000D02*
X93980000Y-67056000D01*
X96520000Y-66802000D02*
X94234000Y-66802000D01*
X90551000Y-81407000D02*
X90170000Y-81788000D01*
X93980000Y-67056000D02*
X93980000Y-77978000D01*
X90551000Y-81407000D02*
X93980000Y-77978000D01*
X89916000Y-82042000D02*
X90170000Y-81788000D01*
X90551000Y-84455000D02*
X90551000Y-87122000D01*
X90551000Y-87122000D02*
X91313000Y-87884000D01*
X90170000Y-84074000D02*
X90551000Y-84455000D01*
X89916000Y-83820000D02*
X89916000Y-82042000D01*
X90170000Y-84074000D02*
X89916000Y-83820000D01*
X97790000Y-68072000D02*
X96520000Y-66802000D01*
X99060000Y-66802000D02*
X101600000Y-66802000D01*
X97790000Y-68072000D02*
X99060000Y-66802000D01*
X103124000Y-68326000D02*
X101600000Y-66802000D01*
X109728000Y-67818000D02*
X109728000Y-68326000D01*
X109728000Y-68326000D02*
X108712000Y-69342000D01*
X108712000Y-69342000D02*
X106172000Y-69342000D01*
X106172000Y-69342000D02*
X105156000Y-68326000D01*
X105156000Y-68326000D02*
X103124000Y-68326000D01*
X105918000Y-68072000D02*
X104394000Y-66548000D01*
X103632000Y-66548000D02*
X103124000Y-66040000D01*
X108204000Y-68072000D02*
X105918000Y-68072000D01*
X108458000Y-68326000D02*
X108204000Y-68072000D01*
X104394000Y-66548000D02*
X103632000Y-66548000D01*
X102108000Y-66040000D02*
X103124000Y-66040000D01*
X93218000Y-77724000D02*
X93218000Y-66294000D01*
X88900000Y-82042000D02*
X93218000Y-77724000D01*
X88900000Y-82042000D02*
X88900000Y-84582000D01*
D17*
X110236000Y-96012000D02*
X90170000Y-96012000D01*
X110723759Y-96499759D02*
X110236000Y-96012000D01*
X91694000Y-92456000D02*
X87376000Y-88138000D01*
X91694000Y-93218000D02*
X91694000Y-92456000D01*
X87376000Y-73152000D02*
X87376000Y-88138000D01*
X84094241Y-69870241D02*
X87376000Y-73152000D01*
X87650241Y-96499759D02*
X89662000Y-94488000D01*
X87650241Y-96499759D02*
X84094241Y-96499759D01*
X101600000Y-94488000D02*
X103124000Y-92964000D01*
X89662000Y-94488000D02*
X101600000Y-94488000D01*
X106172000Y-71882000D02*
X106172000Y-89408000D01*
X107315000Y-70739000D02*
X106172000Y-71882000D01*
X109855000Y-70739000D02*
X110723759Y-69870241D01*
X107315000Y-70739000D02*
X109855000Y-70739000D01*
D15*
X91694000Y-82677000D02*
X92202000Y-83185000D01*
X92202000Y-83185000D02*
X92202000Y-85090000D01*
X92202000Y-85090000D02*
X92456000Y-85344000D01*
X96520000Y-89408000D02*
X92456000Y-85344000D01*
X104902000Y-89408000D02*
X96520000Y-89408000D01*
X105918000Y-90424000D02*
X104902000Y-89408000D01*
X106426000Y-90424000D02*
X105918000Y-90424000D01*
X107188000Y-89662000D02*
X106426000Y-90424000D01*
X107188000Y-79756000D02*
X107188000Y-89662000D01*
X107950000Y-78994000D02*
X107188000Y-79756000D01*
G36*
X102298500Y-82099572D02*
X101752298Y-81553370D01*
X101842101Y-81463568D01*
X101980090Y-81259143D01*
X102031720Y-81009822D01*
X101983223Y-80759872D01*
X101842101Y-80547950D01*
X100046050Y-78751899D01*
X99841625Y-78613910D01*
X99592304Y-78562280D01*
X99342354Y-78610777D01*
X99130432Y-78751899D01*
X97409000Y-80473331D01*
X95687568Y-78751899D01*
X95483143Y-78613910D01*
X95397505Y-78596176D01*
X95397505Y-78596175D01*
X95445996Y-78523605D01*
X95503999Y-78232000D01*
X95504000Y-78232000D01*
X95504000Y-76771390D01*
X95844784Y-76771687D01*
X96241689Y-76607689D01*
X96332035Y-76517500D01*
X99861066Y-76517500D01*
X101282500Y-77938934D01*
X101282500Y-78546747D01*
X101193378Y-78635714D01*
X101028687Y-79032332D01*
X101028313Y-79461784D01*
X101192311Y-79858689D01*
X101495714Y-80162622D01*
X101892332Y-80327313D01*
X102298500Y-80327666D01*
X102298500Y-81660998D01*
X102298500Y-82099572D01*
X102298500Y-82099572D01*
G37*
X102298500Y-82099572D02*
X101752298Y-81553370D01*
X101842101Y-81463568D01*
X101980090Y-81259143D01*
X102031720Y-81009822D01*
X101983223Y-80759872D01*
X101842101Y-80547950D01*
X100046050Y-78751899D01*
X99841625Y-78613910D01*
X99592304Y-78562280D01*
X99342354Y-78610777D01*
X99130432Y-78751899D01*
X97409000Y-80473331D01*
X95687568Y-78751899D01*
X95483143Y-78613910D01*
X95397505Y-78596176D01*
X95397505Y-78596175D01*
X95445996Y-78523605D01*
X95503999Y-78232000D01*
X95504000Y-78232000D01*
X95504000Y-76771390D01*
X95844784Y-76771687D01*
X96241689Y-76607689D01*
X96332035Y-76517500D01*
X99861066Y-76517500D01*
X101282500Y-77938934D01*
X101282500Y-78546747D01*
X101193378Y-78635714D01*
X101028687Y-79032332D01*
X101028313Y-79461784D01*
X101192311Y-79858689D01*
X101495714Y-80162622D01*
X101892332Y-80327313D01*
X102298500Y-80327666D01*
X102298500Y-81660998D01*
X102298500Y-82099572D01*
G36*
X110457622Y-98883000D02*
X84357759Y-98883000D01*
X84552050Y-98753619D01*
X85662910Y-97642759D01*
X87650241Y-97642759D01*
X88087648Y-97555753D01*
X88458464Y-97307982D01*
X89195329Y-96571116D01*
X89361777Y-96820223D01*
X89732593Y-97067994D01*
X90170000Y-97155000D01*
X108667331Y-97155000D01*
X110265950Y-98753619D01*
X110457622Y-98883000D01*
X110457622Y-98883000D01*
G37*
X110457622Y-98883000D02*
X84357759Y-98883000D01*
X84552050Y-98753619D01*
X85662910Y-97642759D01*
X87650241Y-97642759D01*
X88087648Y-97555753D01*
X88458464Y-97307982D01*
X89195329Y-96571116D01*
X89361777Y-96820223D01*
X89732593Y-97067994D01*
X90170000Y-97155000D01*
X108667331Y-97155000D01*
X110265950Y-98753619D01*
X110457622Y-98883000D01*
G36*
X113615000Y-69484316D02*
X113538000Y-69469000D01*
X113100593Y-69556006D01*
X113081653Y-69568660D01*
X112977619Y-69412432D01*
X111181568Y-67616381D01*
X110977143Y-67478392D01*
X110734976Y-67428243D01*
X110643689Y-67207311D01*
X110340286Y-66903378D01*
X109943668Y-66738687D01*
X109514216Y-66738313D01*
X109165037Y-66882590D01*
X109165188Y-66710127D01*
X109000354Y-66311200D01*
X108695405Y-66005718D01*
X108296767Y-65840189D01*
X107865127Y-65839812D01*
X107466200Y-66004646D01*
X107160718Y-66309595D01*
X106995189Y-66708233D01*
X106994812Y-67139873D01*
X107065107Y-67310000D01*
X106233630Y-67310000D01*
X104932815Y-66009185D01*
X104685605Y-65844004D01*
X104394000Y-65786000D01*
X103947630Y-65786000D01*
X103662815Y-65501185D01*
X103415605Y-65336004D01*
X103124000Y-65278000D01*
X102872641Y-65278000D01*
X102720286Y-65125378D01*
X102323668Y-64960687D01*
X101894216Y-64960313D01*
X101725713Y-65029936D01*
X101612688Y-64757053D01*
X101218490Y-64325179D01*
X100689027Y-64077032D01*
X100457000Y-64197531D01*
X100457000Y-65405000D01*
X100477000Y-65405000D01*
X100477000Y-65659000D01*
X100457000Y-65659000D01*
X100457000Y-65679000D01*
X100203000Y-65679000D01*
X100203000Y-65659000D01*
X100183000Y-65659000D01*
X100183000Y-65405000D01*
X100203000Y-65405000D01*
X100203000Y-64197531D01*
X99970973Y-64077032D01*
X99441510Y-64325179D01*
X99059992Y-64743160D01*
X98879029Y-64472330D01*
X98392848Y-64147474D01*
X97819359Y-64033400D01*
X97760641Y-64033400D01*
X97187152Y-64147474D01*
X96700971Y-64472330D01*
X96520000Y-64743172D01*
X96339029Y-64472330D01*
X95852848Y-64147474D01*
X95279359Y-64033400D01*
X95220641Y-64033400D01*
X94647152Y-64147474D01*
X94160971Y-64472330D01*
X93836115Y-64958511D01*
X93758341Y-65349503D01*
X93433668Y-65214687D01*
X93004216Y-65214313D01*
X92607311Y-65378311D01*
X92303378Y-65681714D01*
X92138687Y-66078332D01*
X92138313Y-66507784D01*
X92302311Y-66904689D01*
X92456000Y-67058646D01*
X92456000Y-77408370D01*
X88519000Y-81345370D01*
X88519000Y-73152000D01*
X88431994Y-72714593D01*
X88184223Y-72343777D01*
X86258298Y-70417852D01*
X86348101Y-70328050D01*
X86486090Y-70123625D01*
X86537720Y-69874304D01*
X86489223Y-69624354D01*
X86348101Y-69412432D01*
X84552050Y-67616381D01*
X84347625Y-67478392D01*
X84098304Y-67426762D01*
X83848354Y-67475259D01*
X83636432Y-67616381D01*
X81840381Y-69412432D01*
X81702392Y-69616857D01*
X81650762Y-69866178D01*
X81699259Y-70116128D01*
X81840381Y-70328050D01*
X83636432Y-72124101D01*
X83840857Y-72262090D01*
X84090178Y-72313720D01*
X84340128Y-72265223D01*
X84552050Y-72124101D01*
X84641852Y-72034298D01*
X86233000Y-73625446D01*
X86233000Y-88138000D01*
X86320006Y-88575407D01*
X86567777Y-88946223D01*
X90551000Y-92929446D01*
X90551000Y-93218000D01*
X90576261Y-93345000D01*
X89662000Y-93345000D01*
X89224593Y-93432006D01*
X88853777Y-93679777D01*
X87176795Y-95356759D01*
X85701370Y-95356759D01*
X85701370Y-82762185D01*
X85377020Y-81977200D01*
X84776959Y-81376091D01*
X83992541Y-81050372D01*
X83143185Y-81049630D01*
X82358200Y-81373980D01*
X81757091Y-81974041D01*
X81431372Y-82758459D01*
X81430630Y-83607815D01*
X81754980Y-84392800D01*
X82355041Y-84993909D01*
X83139459Y-85319628D01*
X83988815Y-85320370D01*
X84773800Y-84996020D01*
X85374909Y-84395959D01*
X85700628Y-83611541D01*
X85701370Y-82762185D01*
X85701370Y-95356759D01*
X85662910Y-95356759D01*
X84552050Y-94245899D01*
X84347625Y-94107910D01*
X84098304Y-94056280D01*
X83848354Y-94104777D01*
X83636432Y-94245899D01*
X81840381Y-96041950D01*
X81702392Y-96246375D01*
X81650762Y-96495696D01*
X81699259Y-96745646D01*
X81840381Y-96957568D01*
X83636432Y-98753619D01*
X83828104Y-98883000D01*
X81203000Y-98883000D01*
X81203000Y-63677000D01*
X113615000Y-63677000D01*
X113615000Y-69484316D01*
X113615000Y-69484316D01*
G37*
X113615000Y-69484316D02*
X113538000Y-69469000D01*
X113100593Y-69556006D01*
X113081653Y-69568660D01*
X112977619Y-69412432D01*
X111181568Y-67616381D01*
X110977143Y-67478392D01*
X110734976Y-67428243D01*
X110643689Y-67207311D01*
X110340286Y-66903378D01*
X109943668Y-66738687D01*
X109514216Y-66738313D01*
X109165037Y-66882590D01*
X109165188Y-66710127D01*
X109000354Y-66311200D01*
X108695405Y-66005718D01*
X108296767Y-65840189D01*
X107865127Y-65839812D01*
X107466200Y-66004646D01*
X107160718Y-66309595D01*
X106995189Y-66708233D01*
X106994812Y-67139873D01*
X107065107Y-67310000D01*
X106233630Y-67310000D01*
X104932815Y-66009185D01*
X104685605Y-65844004D01*
X104394000Y-65786000D01*
X103947630Y-65786000D01*
X103662815Y-65501185D01*
X103415605Y-65336004D01*
X103124000Y-65278000D01*
X102872641Y-65278000D01*
X102720286Y-65125378D01*
X102323668Y-64960687D01*
X101894216Y-64960313D01*
X101725713Y-65029936D01*
X101612688Y-64757053D01*
X101218490Y-64325179D01*
X100689027Y-64077032D01*
X100457000Y-64197531D01*
X100457000Y-65405000D01*
X100477000Y-65405000D01*
X100477000Y-65659000D01*
X100457000Y-65659000D01*
X100457000Y-65679000D01*
X100203000Y-65679000D01*
X100203000Y-65659000D01*
X100183000Y-65659000D01*
X100183000Y-65405000D01*
X100203000Y-65405000D01*
X100203000Y-64197531D01*
X99970973Y-64077032D01*
X99441510Y-64325179D01*
X99059992Y-64743160D01*
X98879029Y-64472330D01*
X98392848Y-64147474D01*
X97819359Y-64033400D01*
X97760641Y-64033400D01*
X97187152Y-64147474D01*
X96700971Y-64472330D01*
X96520000Y-64743172D01*
X96339029Y-64472330D01*
X95852848Y-64147474D01*
X95279359Y-64033400D01*
X95220641Y-64033400D01*
X94647152Y-64147474D01*
X94160971Y-64472330D01*
X93836115Y-64958511D01*
X93758341Y-65349503D01*
X93433668Y-65214687D01*
X93004216Y-65214313D01*
X92607311Y-65378311D01*
X92303378Y-65681714D01*
X92138687Y-66078332D01*
X92138313Y-66507784D01*
X92302311Y-66904689D01*
X92456000Y-67058646D01*
X92456000Y-77408370D01*
X88519000Y-81345370D01*
X88519000Y-73152000D01*
X88431994Y-72714593D01*
X88184223Y-72343777D01*
X86258298Y-70417852D01*
X86348101Y-70328050D01*
X86486090Y-70123625D01*
X86537720Y-69874304D01*
X86489223Y-69624354D01*
X86348101Y-69412432D01*
X84552050Y-67616381D01*
X84347625Y-67478392D01*
X84098304Y-67426762D01*
X83848354Y-67475259D01*
X83636432Y-67616381D01*
X81840381Y-69412432D01*
X81702392Y-69616857D01*
X81650762Y-69866178D01*
X81699259Y-70116128D01*
X81840381Y-70328050D01*
X83636432Y-72124101D01*
X83840857Y-72262090D01*
X84090178Y-72313720D01*
X84340128Y-72265223D01*
X84552050Y-72124101D01*
X84641852Y-72034298D01*
X86233000Y-73625446D01*
X86233000Y-88138000D01*
X86320006Y-88575407D01*
X86567777Y-88946223D01*
X90551000Y-92929446D01*
X90551000Y-93218000D01*
X90576261Y-93345000D01*
X89662000Y-93345000D01*
X89224593Y-93432006D01*
X88853777Y-93679777D01*
X87176795Y-95356759D01*
X85701370Y-95356759D01*
X85701370Y-82762185D01*
X85377020Y-81977200D01*
X84776959Y-81376091D01*
X83992541Y-81050372D01*
X83143185Y-81049630D01*
X82358200Y-81373980D01*
X81757091Y-81974041D01*
X81431372Y-82758459D01*
X81430630Y-83607815D01*
X81754980Y-84392800D01*
X82355041Y-84993909D01*
X83139459Y-85319628D01*
X83988815Y-85320370D01*
X84773800Y-84996020D01*
X85374909Y-84395959D01*
X85700628Y-83611541D01*
X85701370Y-82762185D01*
X85701370Y-95356759D01*
X85662910Y-95356759D01*
X84552050Y-94245899D01*
X84347625Y-94107910D01*
X84098304Y-94056280D01*
X83848354Y-94104777D01*
X83636432Y-94245899D01*
X81840381Y-96041950D01*
X81702392Y-96246375D01*
X81650762Y-96495696D01*
X81699259Y-96745646D01*
X81840381Y-96957568D01*
X83636432Y-98753619D01*
X83828104Y-98883000D01*
X81203000Y-98883000D01*
X81203000Y-63677000D01*
X113615000Y-63677000D01*
X113615000Y-69484316D01*
G36*
X113615000Y-98883000D02*
X113387370Y-98883000D01*
X113387370Y-82762185D01*
X113063020Y-81977200D01*
X112462959Y-81376091D01*
X111678541Y-81050372D01*
X110829185Y-81049630D01*
X110044200Y-81373980D01*
X109443091Y-81974041D01*
X109117372Y-82758459D01*
X109116630Y-83607815D01*
X109440980Y-84392800D01*
X110041041Y-84993909D01*
X110825459Y-85319628D01*
X111674815Y-85320370D01*
X112459800Y-84996020D01*
X113060909Y-84395959D01*
X113386628Y-83611541D01*
X113387370Y-82762185D01*
X113387370Y-98883000D01*
X110987277Y-98883000D01*
X111181568Y-98753619D01*
X112977619Y-96957568D01*
X113115608Y-96753143D01*
X113167238Y-96503822D01*
X113118741Y-96253872D01*
X112977619Y-96041950D01*
X111181568Y-94245899D01*
X110977143Y-94107910D01*
X110727822Y-94056280D01*
X110477872Y-94104777D01*
X110265950Y-94245899D01*
X109642849Y-94869000D01*
X102835446Y-94869000D01*
X103932223Y-93772223D01*
X104179994Y-93401407D01*
X104267000Y-92964000D01*
X104179994Y-92526593D01*
X103932223Y-92155777D01*
X103561407Y-91908006D01*
X103124000Y-91821000D01*
X102686593Y-91908006D01*
X102315777Y-92155777D01*
X101126554Y-93345000D01*
X92811738Y-93345000D01*
X92837000Y-93218000D01*
X92837000Y-92456000D01*
X92749994Y-92018593D01*
X92502223Y-91647777D01*
X88519000Y-87664554D01*
X88519000Y-85592660D01*
X88684332Y-85661313D01*
X89113784Y-85661687D01*
X89510689Y-85497689D01*
X89789000Y-85219863D01*
X89789000Y-87122000D01*
X89847004Y-87413605D01*
X90012185Y-87660815D01*
X90233500Y-87882131D01*
X90233313Y-88097784D01*
X90397311Y-88494689D01*
X90700714Y-88798622D01*
X91097332Y-88963313D01*
X91526784Y-88963687D01*
X91923689Y-88799689D01*
X92227622Y-88496286D01*
X92392313Y-88099668D01*
X92392687Y-87670216D01*
X92325881Y-87508533D01*
X92608622Y-87226286D01*
X92773313Y-86829668D01*
X92773391Y-86739021D01*
X95981185Y-89946815D01*
X96228395Y-90111996D01*
X96228396Y-90111996D01*
X96520000Y-90170000D01*
X104586370Y-90170000D01*
X105379185Y-90962815D01*
X105626395Y-91127996D01*
X105626396Y-91127996D01*
X105918000Y-91186000D01*
X106426000Y-91186000D01*
X106426000Y-91185999D01*
X106717604Y-91127996D01*
X106717605Y-91127996D01*
X106964815Y-90962815D01*
X107726815Y-90200815D01*
X107726816Y-90200815D01*
X107825834Y-90052623D01*
X107891996Y-89953605D01*
X107891996Y-89953604D01*
X107950000Y-89662000D01*
X107950000Y-80073500D01*
X108163784Y-80073687D01*
X108560689Y-79909689D01*
X108864622Y-79606286D01*
X109029313Y-79209668D01*
X109029687Y-78780216D01*
X108865689Y-78383311D01*
X108562286Y-78079378D01*
X108165668Y-77914687D01*
X107736216Y-77914313D01*
X107339311Y-78078311D01*
X107315000Y-78102579D01*
X107315000Y-73544425D01*
X107464595Y-73694282D01*
X107863233Y-73859811D01*
X108294873Y-73860188D01*
X108693800Y-73695354D01*
X108999282Y-73390405D01*
X109050329Y-73267469D01*
X109173777Y-73452223D01*
X109544593Y-73699994D01*
X109982000Y-73787000D01*
X111506000Y-73787000D01*
X111943407Y-73699994D01*
X112314223Y-73452223D01*
X113615000Y-72151446D01*
X113615000Y-75422554D01*
X113330223Y-75137777D01*
X112959407Y-74890006D01*
X112522000Y-74803000D01*
X110744000Y-74803000D01*
X110306593Y-74890006D01*
X109935777Y-75137777D01*
X109688006Y-75508593D01*
X109601000Y-75946000D01*
X109688006Y-76383407D01*
X109935777Y-76754223D01*
X110306593Y-77001994D01*
X110744000Y-77089000D01*
X112048554Y-77089000D01*
X112729777Y-77770223D01*
X113100593Y-78017994D01*
X113538000Y-78105000D01*
X113615000Y-78089683D01*
X113615000Y-98883000D01*
X113615000Y-98883000D01*
G37*
X113615000Y-98883000D02*
X113387370Y-98883000D01*
X113387370Y-82762185D01*
X113063020Y-81977200D01*
X112462959Y-81376091D01*
X111678541Y-81050372D01*
X110829185Y-81049630D01*
X110044200Y-81373980D01*
X109443091Y-81974041D01*
X109117372Y-82758459D01*
X109116630Y-83607815D01*
X109440980Y-84392800D01*
X110041041Y-84993909D01*
X110825459Y-85319628D01*
X111674815Y-85320370D01*
X112459800Y-84996020D01*
X113060909Y-84395959D01*
X113386628Y-83611541D01*
X113387370Y-82762185D01*
X113387370Y-98883000D01*
X110987277Y-98883000D01*
X111181568Y-98753619D01*
X112977619Y-96957568D01*
X113115608Y-96753143D01*
X113167238Y-96503822D01*
X113118741Y-96253872D01*
X112977619Y-96041950D01*
X111181568Y-94245899D01*
X110977143Y-94107910D01*
X110727822Y-94056280D01*
X110477872Y-94104777D01*
X110265950Y-94245899D01*
X109642849Y-94869000D01*
X102835446Y-94869000D01*
X103932223Y-93772223D01*
X104179994Y-93401407D01*
X104267000Y-92964000D01*
X104179994Y-92526593D01*
X103932223Y-92155777D01*
X103561407Y-91908006D01*
X103124000Y-91821000D01*
X102686593Y-91908006D01*
X102315777Y-92155777D01*
X101126554Y-93345000D01*
X92811738Y-93345000D01*
X92837000Y-93218000D01*
X92837000Y-92456000D01*
X92749994Y-92018593D01*
X92502223Y-91647777D01*
X88519000Y-87664554D01*
X88519000Y-85592660D01*
X88684332Y-85661313D01*
X89113784Y-85661687D01*
X89510689Y-85497689D01*
X89789000Y-85219863D01*
X89789000Y-87122000D01*
X89847004Y-87413605D01*
X90012185Y-87660815D01*
X90233500Y-87882131D01*
X90233313Y-88097784D01*
X90397311Y-88494689D01*
X90700714Y-88798622D01*
X91097332Y-88963313D01*
X91526784Y-88963687D01*
X91923689Y-88799689D01*
X92227622Y-88496286D01*
X92392313Y-88099668D01*
X92392687Y-87670216D01*
X92325881Y-87508533D01*
X92608622Y-87226286D01*
X92773313Y-86829668D01*
X92773391Y-86739021D01*
X95981185Y-89946815D01*
X96228395Y-90111996D01*
X96228396Y-90111996D01*
X96520000Y-90170000D01*
X104586370Y-90170000D01*
X105379185Y-90962815D01*
X105626395Y-91127996D01*
X105626396Y-91127996D01*
X105918000Y-91186000D01*
X106426000Y-91186000D01*
X106426000Y-91185999D01*
X106717604Y-91127996D01*
X106717605Y-91127996D01*
X106964815Y-90962815D01*
X107726815Y-90200815D01*
X107726816Y-90200815D01*
X107825834Y-90052623D01*
X107891996Y-89953605D01*
X107891996Y-89953604D01*
X107950000Y-89662000D01*
X107950000Y-80073500D01*
X108163784Y-80073687D01*
X108560689Y-79909689D01*
X108864622Y-79606286D01*
X109029313Y-79209668D01*
X109029687Y-78780216D01*
X108865689Y-78383311D01*
X108562286Y-78079378D01*
X108165668Y-77914687D01*
X107736216Y-77914313D01*
X107339311Y-78078311D01*
X107315000Y-78102579D01*
X107315000Y-73544425D01*
X107464595Y-73694282D01*
X107863233Y-73859811D01*
X108294873Y-73860188D01*
X108693800Y-73695354D01*
X108999282Y-73390405D01*
X109050329Y-73267469D01*
X109173777Y-73452223D01*
X109544593Y-73699994D01*
X109982000Y-73787000D01*
X111506000Y-73787000D01*
X111943407Y-73699994D01*
X112314223Y-73452223D01*
X113615000Y-72151446D01*
X113615000Y-75422554D01*
X113330223Y-75137777D01*
X112959407Y-74890006D01*
X112522000Y-74803000D01*
X110744000Y-74803000D01*
X110306593Y-74890006D01*
X109935777Y-75137777D01*
X109688006Y-75508593D01*
X109601000Y-75946000D01*
X109688006Y-76383407D01*
X109935777Y-76754223D01*
X110306593Y-77001994D01*
X110744000Y-77089000D01*
X112048554Y-77089000D01*
X112729777Y-77770223D01*
X113100593Y-78017994D01*
X113538000Y-78105000D01*
X113615000Y-78089683D01*
X113615000Y-98883000D01*
M02*
