G04 #@! TF.FileFunction,Soldermask,Bot*
%FSLAX46Y46*%
G04 Gerber Fmt 4.6, Leading zero omitted, Abs format (unit mm)*
G04 Created by KiCad (PCBNEW (2015-03-02 BZR 5466)-product) date Fri 06 Mar 2015 00:37:45 GMT*
%MOMM*%
G01*
G04 APERTURE LIST*
%ADD10C,0.100000*%
%ADD11C,3.500000*%
%ADD12R,1.727200X1.727200*%
%ADD13O,1.727200X1.727200*%
%ADD14C,0.900000*%
G04 APERTURE END LIST*
D10*
D11*
X83566000Y-83185000D03*
X111252000Y-83185000D03*
D12*
X100330000Y-68072000D03*
D13*
X100330000Y-65532000D03*
X97790000Y-68072000D03*
X97790000Y-65532000D03*
X95250000Y-68072000D03*
X95250000Y-65532000D03*
D10*
G36*
X84094241Y-98295810D02*
X82298190Y-96499759D01*
X84094241Y-94703708D01*
X85890292Y-96499759D01*
X84094241Y-98295810D01*
X84094241Y-98295810D01*
G37*
G36*
X95229759Y-87160292D02*
X93433708Y-85364241D01*
X95229759Y-83568190D01*
X97025810Y-85364241D01*
X95229759Y-87160292D01*
X95229759Y-87160292D01*
G37*
G36*
X112519810Y-96499759D02*
X110723759Y-98295810D01*
X108927708Y-96499759D01*
X110723759Y-94703708D01*
X112519810Y-96499759D01*
X112519810Y-96499759D01*
G37*
G36*
X101384292Y-85364241D02*
X99588241Y-87160292D01*
X97792190Y-85364241D01*
X99588241Y-83568190D01*
X101384292Y-85364241D01*
X101384292Y-85364241D01*
G37*
G36*
X110723759Y-68074190D02*
X112519810Y-69870241D01*
X110723759Y-71666292D01*
X108927708Y-69870241D01*
X110723759Y-68074190D01*
X110723759Y-68074190D01*
G37*
G36*
X99588241Y-79209708D02*
X101384292Y-81005759D01*
X99588241Y-82801810D01*
X97792190Y-81005759D01*
X99588241Y-79209708D01*
X99588241Y-79209708D01*
G37*
G36*
X82298190Y-69870241D02*
X84094241Y-68074190D01*
X85890292Y-69870241D01*
X84094241Y-71666292D01*
X82298190Y-69870241D01*
X82298190Y-69870241D01*
G37*
G36*
X93433708Y-81005759D02*
X95229759Y-79209708D01*
X97025810Y-81005759D01*
X95229759Y-82801810D01*
X93433708Y-81005759D01*
X93433708Y-81005759D01*
G37*
D14*
X108080000Y-72775000D03*
X108080000Y-66925000D03*
M02*
